<?xml version="1.0" encoding="UTF-8"?>
<svg id="Layer_2" data-name="Layer 2" xmlns="http://www.w3.org/2000/svg" viewBox="0 0 1093.46 493.78">
  <defs>
    <style>
      .cls-1 {
        fill: #fcfcfc;
      }

      .cls-1, .cls-2, .cls-3 {
        stroke-width: 0px;
      }

      .cls-2 {
        fill: #fc0129;
      }

      .cls-3 {
        fill: #fff;
      }
    </style>
  </defs>
  <g id="Layer_1-2" data-name="Layer 1">
    <g>
      <g>
        <path class="cls-2" d="M416.37,121.19c.04.15.04.41.12.43,17.18,6.17,20.77,19.9,20.28,36.07-.35,11.69-3.01,23.1-3.98,34.71-.39,4.66-.54,9.3.15,13.95,1.98,13.3,9.05,19.56,22.55,19.85,7,.15,6.81-1.36,6.82,6.57.02,10.86,0,10.97-11.07,10.16-4.3-.32-8.63-.94-12.8-2.02-16.72-4.33-26.26-17.07-27.14-35.73-.57-12.08,1.82-23.87,3.39-35.74.76-5.78,1.53-11.55,1.53-17.4,0-13.87-6.73-21.57-20.51-22.65-3.85-.3-4.84-1.59-4.52-5.09.29-3.14-.74-6.72.46-9.37,1.47-3.24,5.68-1.42,8.62-2.15,10.42-2.55,15.57-8.77,15.87-20.03.3-11.38-1.86-22.54-3.36-33.75-1-7.43-1.83-14.87-1.49-22.39.81-17.81,10.71-30.02,27.92-34.46,6.51-1.68,13.13-2.05,19.82-1.98,2.26.02,3.5.65,3.27,3.1-.06.66.02,1.33,0,2-.12,3.65.97,8.09-.73,10.72-1.73,2.68-6.5.83-9.91,1.24-10.42,1.26-16.59,7-18.44,17.34-1.86,10.38-.01,20.56,1.51,30.77,1.42,9.56,2.57,19.14,1.72,28.84-1.06,12.14-6.5,21.14-18.3,25.61-.61.23-1.18.6-1.74.94-.08.05-.04.3-.05.46Z"/>
        <path class="cls-2" d="M677.48,121.55c-15.8-5.24-20.56-17.17-20.67-32.37-.09-12.75,2.75-25.13,3.92-37.72.54-5.84.64-11.64-.57-17.41-2.1-9.99-8.84-15.99-19.01-16.82-2.32-.19-4.66-.23-6.99-.18-2.12.04-3.09-.83-2.94-2.96.05-.66,0-1.33,0-2-.13-12.65-.13-12.71,12.42-11.72,7.01.55,13.9,1.89,20.14,5.29,12.73,6.93,17.61,18.47,18.41,32.24.71,12.24-1.86,24.19-3.34,36.24-.67,5.45-1.36,10.92-1.49,16.4-.34,14.33,6.1,21.9,20.32,23.29,4.19.41,5.06,1.99,4.62,5.5-.06.49,0,1,0,1.5q0,8.1-7.99,9.48c-10.73,1.84-16.4,8.26-16.87,19.65-.47,11.38,1.76,22.54,3.27,33.75.93,6.94,1.74,13.87,1.59,20.9-.44,20.29-11.05,33.15-30.85,37.18-5.4,1.1-10.88,1.37-16.4,1.34-2.66-.01-4.19-.64-3.81-3.61.06-.49,0-1,0-1.5.1-3.65-1.02-8.08.66-10.74,1.72-2.73,6.48-.79,9.89-1.23,10.71-1.36,16.65-6.96,18.61-17.74,1.92-10.56-.11-20.91-1.69-31.26-1.43-9.42-2.34-18.86-1.54-28.36.96-11.5,6.14-20.23,17.22-24.8,1-.41,2.34-.43,3.12-2.33Z"/>
        <path class="cls-1" d="M551.39,153.86c0-16.41-.04-32.04,0-47.67.07-23.97.31-47.94.21-71.91-.02-4.17,1.1-5.33,5.27-5.25,12.37.22,12.39.04,12.35,12.39-.15,43.78-.34,87.57-.47,131.35-.06,20.69-17.7,35.78-38.47,32.8-19.46-2.79-29.91-14.53-28.42-31.94,1.17-13.65,11.38-23.46,26.5-25.45,9.19-1.21,14.64.04,23.02,5.69Z"/>
      </g>
      <g>
        <path class="cls-1" d="M675.06,493.54c-17.11.12-34.62-2.36-51.36-9.3-4.07-1.69-7.17-4.24-8.54-8.49-1.62-5.05-.49-9.64,3.15-13.38,3.88-3.99,8.75-4.71,13.83-2.75,19.36,7.48,39.42,9.15,59.91,7.46,6.18-.51,12.24-1.61,17.86-4.3,5.95-2.85,9.87-7.27,9.95-14.29.08-6.99-3.51-11.52-9.53-14.52-8.93-4.44-18.55-4.94-28.23-5.04-13.21-.13-26.27-1.25-38.77-5.96-24.76-9.33-35.78-32.36-26.25-55.19,4.95-11.86,14.57-19.06,26.14-23.21,29.59-10.62,58.92-8.35,87.62,3.64,7.56,3.16,9.98,9.96,7.09,16.82-3.08,7.32-9.04,9.71-17.28,6.6-20.27-7.65-41-9.76-62.3-5.54-2.43.48-4.84,1.26-7.12,2.23-6.59,2.81-11.09,7.35-11.24,14.99-.13,6.79,4.06,12.4,11.53,15.34,9.15,3.6,18.8,4.22,28.48,4.23,13.78.01,27.26,1.59,39.99,7.18,21.31,9.36,30.7,29.24,23.99,50.63-3.95,12.57-13.3,20-24.66,25.31-13.75,6.43-28.47,7.71-44.27,7.54Z"/>
        <path class="cls-1" d="M217.06,415.98c0-20.98,0-41.96,0-62.94,0-9.94,5.02-14.92,15.09-14.93,20.65-.02,41.3-.02,61.95,0,28.53.03,51.46,22.57,51.56,50.66.1,27.9-22.27,50.37-50.81,50.78-15.65.23-31.31.17-46.96-.04-3.92-.05-5.07,1.07-4.98,5.01.26,11.48.12,22.98.08,34.47-.03,8.79-5.15,14.49-12.98,14.54-7.64.05-12.93-5.88-12.94-14.6-.02-20.98,0-41.96,0-62.94ZM271.99,364.03c-8.49,0-16.98.06-25.47-.04-2.39-.03-3.6.41-3.57,3.23.12,14.48.08,28.97.03,43.45,0,1.98.43,3.12,2.73,3.1,17.31-.15,34.65.36,51.92-.52,12.86-.66,22.56-12.71,22.02-25.23-.57-13.12-11.49-23.78-24.68-23.97-7.66-.11-15.32-.02-22.98-.02Z"/>
        <path class="cls-1" d="M406.95,388.94c0-11.99-.04-23.98.01-35.97.04-9.11,5.33-14.97,13.26-14.86,7.76.1,12.72,5.81,12.72,14.76.02,22.98-.1,45.96.04,68.94.14,22.48,16.97,42.22,38.27,45.21,24.03,3.38,45.43-9.51,52.5-31.68,1.47-4.62,2.12-9.39,2.11-14.26-.04-23.15-.11-46.29.03-69.44.06-10.84,10.6-16.96,19.56-11.58,3.85,2.31,6.23,5.83,6.2,10.23-.17,26.8,1.77,53.69-.76,80.37-3.54,37.33-37.88,65.25-75.43,62.8-39.44-2.57-68.14-32.94-68.5-72.55-.1-10.66-.01-21.31-.02-31.97Z"/>
        <path class="cls-3" d="M859.95,388.94c0-11.99-.04-23.98.01-35.97.04-9.11,5.33-14.97,13.26-14.86,7.76.1,12.72,5.81,12.72,14.76.02,22.98-.1,45.96.04,68.94.14,22.48,16.97,42.22,38.27,45.21,24.03,3.38,45.43-9.51,52.5-31.68,1.47-4.62,2.12-9.39,2.11-14.26-.04-23.15-.11-46.29.03-69.44.06-10.84,10.6-16.96,19.56-11.58,3.85,2.31,6.23,5.83,6.2,10.23-.17,26.8,1.77,53.69-.76,80.37-3.54,37.33-37.88,65.25-75.43,62.8-39.44-2.57-68.14-32.94-68.5-72.55-.1-10.66-.01-21.31-.02-31.97Z"/>
        <path class="cls-1" d="M.04,416.46c-.02-45.65,38.11-81.3,82.86-78.27,3.88.26,5.71,1.1,4.67,5.59-1.19,5.17-1.94,10.51-2.17,15.8-.18,4.16-1.94,4.68-5.56,4.59-20.38-.51-36.1,8.05-46.67,25.41-15.44,25.37-5.36,58.92,21.51,72.54,26.76,13.56,59.43,1.24,71.11-26.82,3.06-7.35,4.4-15.01,3.7-22.93-.25-2.85.05-4.16,3.35-4.47,5.95-.55,11.87-1.62,17.76-2.65,3.03-.53,4.28.02,4.7,3.54,4.7,39.41-25.38,78.28-65.29,84.11-41.5,6.06-79.41-19.99-88.41-60.8-1.19-5.38-1.78-10.84-1.57-15.65Z"/>
        <path class="cls-2" d="M123.81,383.36c-7.43.04-13.48-5.87-13.47-13.16,0-7.35,6.01-13.28,13.4-13.24,7.26.04,13.02,5.67,13.19,12.91.18,7.39-5.72,13.45-13.12,13.49Z"/>
        <rect class="cls-3" x="1067.46" y="337.64" width="26" height="156" rx="13" ry="13"/>
      </g>
    </g>
  </g>
</svg>