<svg width="353" height="234" viewBox="0 0 353 234" fill="none" xmlns="http://www.w3.org/2000/svg">
<path d="M186.153 77.719L186.425 14.2198L178.145 14.2497L177.883 73.4382C175.057 69.9622 168.043 68.9312 161.378 72.3206C153.361 76.4508 153.466 85.0906 156.263 90.6747C159.09 96.1542 168.925 99.6791 176.472 96.3772C184.019 93.0754 186.153 88.3584 186.153 83.6414L186.153 77.719Z" fill="white"/>
<path d="M102.414 54.1025C112.72 54.1025 114.171 48.4933 114.171 43.4612C114.171 39.4315 113.589 35.4119 113.006 31.3821C112.423 27.3524 111.84 23.4746 111.84 19.4448C111.851 6.23178 120.561 0.622559 132.901 0.622559H135.948V8.53014H133.331C124.763 8.53014 121.86 13.1269 121.86 20.8927C121.86 24.2036 122.299 27.646 122.872 31.0987C123.454 34.693 123.884 38.1456 123.884 42.0235C124.027 51.227 119.968 55.8238 113.435 57.5551V57.8386C119.968 59.4181 124.037 64.3085 123.884 73.5121C123.884 77.3899 123.444 80.9843 122.872 84.4369C122.289 88.0312 121.86 91.3421 121.86 94.7846C121.86 102.834 125.203 107.289 133.331 107.289H135.948V115.196H132.901C120.847 115.196 111.851 110.023 111.851 95.5034C111.851 91.6256 112.433 87.5959 113.016 83.718C113.599 79.8402 114.182 75.9522 114.182 72.0743C114.182 67.6193 112.73 61.433 102.424 61.433V54.1025H102.414Z" fill="#FF0028"/>
<path d="M249.156 61.7166C238.851 61.7166 237.399 67.3258 237.399 72.3579C237.399 76.3876 237.982 80.4072 238.564 84.4369C239.147 88.4667 239.73 92.3445 239.73 96.3743C239.72 109.587 231.009 115.197 218.669 115.197L215.622 115.197L215.622 107.289L218.24 107.289C226.807 107.289 229.711 102.692 229.711 94.9264C229.711 91.6155 229.271 88.173 228.699 84.7204C228.116 81.1261 227.686 77.6735 227.686 73.7956C227.543 64.592 231.602 59.9953 238.135 58.2639L238.135 57.9805C231.602 56.401 227.533 51.5106 227.686 42.307C227.686 38.4292 228.126 34.8348 228.699 31.3822C229.281 27.7879 229.711 24.477 229.711 21.0345C229.711 12.9852 226.368 8.53021 218.24 8.5302L215.622 8.5302L215.622 0.622615L218.669 0.622615C230.723 0.622616 239.72 5.79647 239.72 20.3156C239.72 24.1935 239.137 28.2232 238.554 32.1011C237.971 35.9789 237.389 39.8669 237.389 43.7448C237.389 48.1998 238.841 54.3861 249.146 54.3861L249.146 61.7166L249.156 61.7166Z" fill="#FF0028"/>
<path d="M102.916 166.168C102.916 162.801 105.661 160.056 109.028 160.056H140.099C146.523 160.155 152.012 162.603 156.611 167.286C161.195 171.87 163.544 177.473 163.544 183.996C163.544 190.519 161.195 196.221 156.512 200.904C151.928 205.587 146.226 207.936 139.604 207.936H115.155V227.291C115.155 230.659 112.41 233.404 109.042 233.404C105.675 233.404 102.93 230.659 102.93 227.291V166.168H102.916ZM115.141 172.281V195.711H139.59C142.745 195.711 145.504 194.593 147.839 192.245C150.173 189.896 151.305 187.151 151.305 183.996C151.305 180.841 150.187 178.195 147.938 175.945C145.801 173.597 143.155 172.38 140.099 172.281H115.141Z" fill="white"/>
<path d="M248.593 166.168C248.593 162.801 251.352 160.056 254.705 160.056C258.058 160.056 260.817 162.801 260.817 166.168V199.277C260.817 208.756 257.45 216.793 250.828 223.429C244.207 230.05 236.156 233.418 226.676 233.418C217.197 233.418 209.16 230.05 202.524 223.429C195.903 216.807 192.535 208.756 192.535 199.277V166.168C192.563 162.801 195.308 160.056 198.676 160.056C202.043 160.056 204.788 162.801 204.788 166.168V199.786C204.887 205.799 207.137 210.794 211.311 214.968C215.584 219.142 220.677 221.179 226.69 221.179C232.704 221.179 237.896 219.043 242.183 214.756C246.471 210.468 248.607 205.276 248.607 199.277V166.168H248.593Z" fill="white"/>
<path d="M321.331 221.179C333.867 221.179 340.177 218.123 340.177 212.011C340.177 205.898 333.867 202.842 321.331 202.842C311.851 202.842 304.31 201.003 298.707 197.437C293.104 193.872 290.246 188.467 290.246 181.449C290.246 174.828 293.104 169.536 298.806 165.758C304.621 161.995 312.064 160.056 321.331 160.056C330.599 160.056 338.041 161.584 345.073 164.64C348.44 166.168 350.067 169.225 348.836 172.38C347.407 175.945 344.861 177.275 341.196 176.143C334.886 173.597 328.25 172.267 321.331 172.267C308.795 172.267 302.485 175.323 302.485 181.435C302.485 187.547 308.795 190.603 321.331 190.603C330.811 190.603 338.338 192.443 343.955 196.008C349.558 199.574 352.416 204.979 352.416 211.997C352.416 218.618 349.558 223.91 343.757 227.688C338.055 231.451 330.613 233.39 321.345 233.39H318.289C309.432 233.39 301.579 231.862 294.547 228.904C291.392 227.787 289.553 224.122 290.784 220.953C292.114 217.585 295.368 216.17 298.523 217.288C305.343 219.835 311.965 221.165 318.289 221.165H321.345L321.331 221.179Z" fill="white"/>
<path d="M62.3354 182.737C66.0048 182.737 68.9794 179.763 68.9794 176.093C68.9794 172.424 66.0048 169.449 62.3354 169.449C58.666 169.449 55.6914 172.424 55.6914 176.093C55.6914 179.763 58.666 182.737 62.3354 182.737Z" fill="#FF0028"/>
<path d="M70.4296 212.605C70.4862 212.492 70.5427 212.378 70.5993 212.251C70.6701 212.11 70.7267 211.954 70.7974 211.813C71.4341 210.412 71.9859 208.954 72.4245 207.469C73.9951 202.446 74.3629 197.126 73.5423 191.509L61.445 193.263C61.629 194.523 61.6856 195.768 61.6856 196.985C61.6856 197.706 61.6431 198.428 61.5865 199.135C61.5865 199.22 61.5724 199.305 61.5582 199.39C61.5299 199.673 61.4733 199.956 61.4309 200.239C61.3319 200.96 61.2045 201.668 61.0489 202.361C61.0347 202.432 61.0064 202.503 60.9923 202.573C60.9074 202.927 60.7942 203.281 60.6952 203.62C59.8745 206.309 58.5728 208.884 56.7476 211.331C56.3939 211.813 56.0119 212.237 55.644 212.69C55.262 213.128 54.88 213.553 54.4697 213.977C54.0876 214.359 53.6773 214.713 53.2812 215.067C52.8708 215.42 52.4747 215.774 52.0502 216.1C49.6166 217.953 47.0557 219.283 44.3815 220.146C44.0278 220.245 43.6883 220.373 43.3204 220.457C43.2355 220.472 43.1506 220.5 43.0657 220.514C42.3866 220.67 41.6791 220.811 40.9575 220.924C40.816 220.953 40.6746 220.967 40.5189 220.981C40.0096 221.052 39.5002 221.094 38.9908 221.122C38.4956 221.151 37.9863 221.193 37.4769 221.193C37.4062 221.193 37.3354 221.193 37.2647 221.193H37.0524C36.5714 221.193 36.1045 221.151 35.6234 221.122C35.1282 221.094 34.6471 221.052 34.1519 220.995C34.0387 220.981 33.9114 220.967 33.7982 220.939C33.0483 220.825 32.2984 220.698 31.5769 220.542C30.9119 220.387 30.261 220.189 29.6102 219.991C29.497 219.948 29.3696 219.92 29.2564 219.877C29.1432 219.835 29.0159 219.792 28.9027 219.75C28.8037 219.708 28.7046 219.665 28.5914 219.623C26.554 218.83 24.6015 217.741 22.7197 216.368C22.6065 216.284 22.4933 216.199 22.3801 216.114C22.0264 215.845 21.6868 215.562 21.3472 215.279C20.9228 214.911 20.4983 214.529 20.0738 214.119C19.989 214.034 19.8899 213.935 19.805 213.85C19.5079 213.553 19.2532 213.242 18.9702 212.944C18.5741 212.492 18.1779 212.039 17.7959 211.544C16.4234 209.747 15.3481 207.865 14.5416 205.927C13.8484 204.158 13.339 202.276 13.0419 200.267V200.239C12.957 199.659 12.9145 199.093 12.8721 198.513C12.8296 197.933 12.8013 197.367 12.8013 196.772C12.8013 196.772 12.8013 196.758 12.8013 196.744C12.8013 196.206 12.8438 195.669 12.8721 195.145C12.9145 194.608 12.9428 194.084 13.0136 193.532C13.3248 191.141 13.9474 188.92 14.8246 186.854C14.8671 186.755 14.9095 186.642 14.9661 186.529C15.0086 186.43 15.051 186.345 15.0935 186.246C15.1359 186.161 15.1783 186.076 15.2349 185.977C15.8858 184.689 16.6498 183.416 17.5554 182.199C17.6119 182.114 17.6685 182.043 17.7251 181.958C18.0506 181.52 18.4043 181.124 18.7439 180.713C19.0976 180.317 19.4371 179.921 19.8192 179.525C19.8192 179.525 19.8192 179.525 19.8333 179.511C19.8899 179.44 19.9607 179.383 20.0314 179.313C20.3851 178.959 20.753 178.634 21.1209 178.308C21.5029 177.983 21.8707 177.643 22.2811 177.332C22.3518 177.275 22.4226 177.233 22.4791 177.176C23.6959 176.256 24.9552 175.464 26.2427 174.813C26.3418 174.771 26.4267 174.714 26.5257 174.672C26.6248 174.629 26.7096 174.587 26.8087 174.544C26.9077 174.502 27.0068 174.46 27.1058 174.417C29.1574 173.512 31.3646 172.875 33.7416 172.535C34.8877 172.38 36.0479 172.281 37.2364 172.281C38.2975 172.281 39.3729 172.351 40.4623 172.493L42.0894 160.41C36.1045 159.617 30.4591 160.155 25.1533 162.037C24.9693 162.094 24.7996 162.164 24.6156 162.221C24.4883 162.263 24.3468 162.32 24.2195 162.376C22.3943 163.056 20.6256 163.905 18.9136 164.895C18.4892 165.136 18.0789 165.404 17.6544 165.659C17.2865 165.885 16.9328 166.126 16.5791 166.381C15.8009 166.918 15.0369 167.484 14.287 168.093C14.1313 168.22 13.9757 168.347 13.8342 168.46C13.2966 168.913 12.7589 169.38 12.2354 169.861C12.108 169.989 11.9666 170.116 11.8392 170.243C11.6411 170.427 11.4572 170.597 11.2591 170.781C10.9761 171.064 10.7215 171.347 10.4526 171.644C10.3394 171.771 10.2121 171.899 10.0989 172.026C10.0565 172.068 9.99987 172.125 9.95743 172.167C9.57541 172.578 9.22169 173.016 8.85382 173.441C8.69818 173.625 8.55669 173.809 8.4152 173.979C7.8351 174.714 7.26915 175.464 6.74564 176.228C6.34947 176.808 5.96745 177.403 5.59958 177.997C5.44395 178.251 5.30246 178.506 5.16097 178.775C4.12811 180.586 3.26503 182.468 2.58588 184.42C1.1427 188.424 0.463557 192.613 0.534301 196.97C0.506003 201.003 1.12855 204.865 2.40195 208.544C3.12354 210.723 4.07151 212.817 5.21757 214.826C6.70319 217.472 8.54254 219.906 10.7356 222.127C13.8059 225.41 17.2865 227.956 21.135 229.824C21.3897 229.951 21.6444 230.079 21.9132 230.192C21.9415 230.192 21.9556 230.206 21.9839 230.22C23.3139 230.829 24.6722 231.352 26.0588 231.791C29.7092 232.979 33.5011 233.531 37.4486 233.474C41 233.489 44.4381 233.007 47.7348 232.003C47.8905 231.96 48.0461 231.918 48.2017 231.861C48.3291 231.819 48.4423 231.777 48.5696 231.734C50.0552 231.267 51.4984 230.701 52.8991 230.036C52.9274 230.022 52.9557 230.008 52.9982 229.994C53.6632 229.668 54.314 229.329 54.9649 228.961C57.7239 227.447 60.2565 225.551 62.5769 223.259C65.9444 220.146 68.5619 216.581 70.4437 212.605H70.4296Z" fill="white"/>
</svg>
