<svg width="75" height="58" viewBox="0 0 75 58" fill="none" xmlns="http://www.w3.org/2000/svg">
<path d="M41.6664 37.0555L41.7789 10.7677L38.3511 10.7801L38.2427 35.2833C37.0729 33.8443 34.1691 33.4175 31.4099 34.8206C28.0911 36.5305 28.1344 40.1072 29.2923 42.419C30.4629 44.6874 34.5343 46.1467 37.6587 44.7797C40.7831 43.4128 41.6664 41.46 41.6664 39.5073L41.6664 37.0555Z" fill="white"/>
<path d="M0 27.0728C5.21689 27.0728 5.95181 24.2333 5.95181 21.6859C5.95181 19.646 5.65681 17.6112 5.36181 15.5712C5.0668 13.5313 4.7718 11.5682 4.7718 9.52828C4.77698 2.83952 9.1865 0 15.4333 0H16.9756V4.003H15.6507C11.3136 4.003 9.84378 6.32998 9.84378 10.2612C9.84378 11.9373 10.0663 13.6799 10.3562 15.4277C10.6512 17.2473 10.8685 18.9951 10.8685 20.9581C10.941 25.6172 8.88632 27.9441 5.57918 28.8206V28.9641C8.88632 29.7637 10.9462 32.2393 10.8685 36.8984C10.8685 38.8614 10.646 40.681 10.3562 42.4288C10.0612 44.2483 9.84378 45.9244 9.84378 47.667C9.84378 51.7418 11.5362 53.997 15.6507 53.997H16.9756V58H15.4333C9.33141 58 4.77698 55.3809 4.77698 48.0309C4.77698 46.0679 5.07198 44.0279 5.36698 42.0649C5.66199 40.1018 5.95699 38.1336 5.95699 36.1706C5.95699 33.9153 5.22207 30.7837 0.00517549 30.7837V27.0728H0Z" fill="#6E9BEA"/>
<path d="M74.2852 30.9272C69.0683 30.9272 68.3333 33.7667 68.3333 36.3141C68.3333 38.354 68.6283 40.3888 68.9233 42.4288C69.2184 44.4687 69.5134 46.4318 69.5134 48.4717C69.5082 55.1605 65.0987 58 58.8518 58L57.3095 58L57.3095 53.997L58.6345 53.997C62.9715 53.997 64.4414 51.67 64.4414 47.7388C64.4414 46.0627 64.2188 44.3201 63.929 42.5723C63.634 40.7527 63.4166 39.0049 63.4166 37.0419C63.3442 32.3828 65.3988 30.0559 68.706 29.1794L68.706 29.0359C65.3988 28.2363 63.339 25.7607 63.4166 21.1016C63.4166 19.1386 63.6392 17.319 63.929 15.5712C64.224 13.7517 64.4414 12.0756 64.4414 10.333C64.4414 6.25822 62.749 4.00301 58.6345 4.00301L57.3096 4.00301L57.3096 2.33064e-06L58.8518 2.46547e-06C64.9538 2.99892e-06 69.5082 2.61913 69.5082 9.96907C69.5082 11.9321 69.2132 13.9721 68.9182 15.9351C68.6232 17.8982 68.3282 19.8664 68.3282 21.8294C68.3282 24.0847 69.0631 27.2163 74.28 27.2163L74.28 30.9272L74.2852 30.9272Z" fill="#6E9BEA"/>
</svg>
