<svg width="20" height="20" viewBox="0 0 20 20" fill="none" xmlns="http://www.w3.org/2000/svg">
<g clip-path="url(#clip0_537_116)">
<path d="M19.1663 10.034C19.1663 4.95281 15.0623 0.83366 9.99967 0.83366C4.93707 0.83366 0.833008 4.95281 0.833008 10.034C0.833008 14.3488 3.79256 17.9692 7.78523 18.9634V12.8455H5.89499V10.034H7.78523V8.82255C7.78523 5.69104 9.19719 4.2396 12.2603 4.2396C12.841 4.2396 13.8431 4.35386 14.253 4.46817V7.01682C14.0367 6.99396 13.6609 6.98252 13.194 6.98252C11.691 6.98252 11.1102 7.55397 11.1102 9.03972V10.034H14.1044L13.59 12.8455H11.1102V19.167C15.649 18.6168 19.1663 14.7379 19.1663 10.034Z" fill="#F7F8F9"/>
</g>
<defs>
<clipPath id="clip0_537_116">
<rect width="20" height="20" fill="white"/>
</clipPath>
</defs>
</svg>
